<svg id="_180_html_outline" data-name="#180_html_outline" xmlns="http://www.w3.org/2000/svg" viewBox="0 0 400 300" width="406" height="306" class="illustration styles_illustrationTablet__1DWOa"><path d="M78.21,203.12H321.79a0,0,0,0,1,0,0v7.06A10.85,10.85,0,0,1,310.94,221H89.06a10.85,10.85,0,0,1-10.85-10.85v-7.06A0,0,0,0,1,78.21,203.12Z" fill="#68e1fd"></path><path d="M310.94,222H89.06a11.85,11.85,0,0,1-11.85-11.84v-7.06a1,1,0,0,1,1-1H321.79a1,1,0,0,1,1,1v7.06A11.85,11.85,0,0,1,310.94,222ZM79.21,204.12v6.06A9.85,9.85,0,0,0,89.06,220H310.94a9.85,9.85,0,0,0,9.85-9.84v-6.06Z" fill="#093f68"></path><path d="M104.25,79H295.75a9.63,9.63,0,0,1,9.63,9.63V203.12a0,0,0,0,1,0,0H94.62a0,0,0,0,1,0,0V88.61A9.63,9.63,0,0,1,104.25,79Z" fill="#68e1fd"></path><path d="M305.38,204.12H94.62a1,1,0,0,1-1-1V88.61A10.64,10.64,0,0,1,104.25,78h191.5a10.64,10.64,0,0,1,10.63,10.63V203.12A1,1,0,0,1,305.38,204.12Zm-209.76-2H304.38V88.61A8.64,8.64,0,0,0,295.75,80H104.25a8.64,8.64,0,0,0-8.63,8.63Z" fill="#093f68"></path><rect x="103.55" y="89.95" width="192.9" height="102.94" rx="2.91" fill="#fff"></rect><path d="M293.54,193.89H106.46a3.92,3.92,0,0,1-3.91-3.91V92.86A3.91,3.91,0,0,1,106.46,89H293.54a3.91,3.91,0,0,1,3.91,3.91V190A3.92,3.92,0,0,1,293.54,193.89ZM106.46,91a1.91,1.91,0,0,0-1.91,1.91V190a1.92,1.92,0,0,0,1.91,1.91H293.54a1.92,1.92,0,0,0,1.91-1.91V92.86A1.91,1.91,0,0,0,293.54,91Z" fill="#093f68"></path><path d="M184,203.12H216a0,0,0,0,1,0,0v3.17a2.42,2.42,0,0,1-2.42,2.42h-27.1a2.42,2.42,0,0,1-2.42-2.42v-3.17A0,0,0,0,1,184,203.12Z" fill="#093f68"></path><path d="M213.55,209.71h-27.1a3.42,3.42,0,0,1-3.42-3.42v-3.17a1,1,0,0,1,1-1H216a1,1,0,0,1,1,1v3.17A3.42,3.42,0,0,1,213.55,209.71ZM185,204.12v2.17a1.43,1.43,0,0,0,1.42,1.42h27.1a1.43,1.43,0,0,0,1.42-1.42v-2.17Z" fill="#093f68"></path><rect x="113.49" y="122.02" width="91.59" height="38.06" fill="#ffbc0e"></rect><path d="M205.07,161.08H113.49a1,1,0,0,1-1-1V122a1,1,0,0,1,1-1h91.58a1,1,0,0,1,1,1v38.06A1,1,0,0,1,205.07,161.08Zm-90.58-2h89.58V123H114.49Z" fill="#093f68"></path><path d="M296.45,92.86V105H103.55V92.86A2.91,2.91,0,0,1,106.46,90H293.54A2.91,2.91,0,0,1,296.45,92.86Z" fill="#093f68"></path><path d="M296.45,106H103.55a1,1,0,0,1-1-1V92.86A3.91,3.91,0,0,1,106.46,89H293.54a3.91,3.91,0,0,1,3.91,3.91V105A1,1,0,0,1,296.45,106Zm-191.9-2h190.9V92.86A1.91,1.91,0,0,0,293.54,91H106.46a1.91,1.91,0,0,0-1.91,1.91Z" fill="#093f68"></path><circle cx="116.68" cy="96.82" r="4.24" fill="#f56132"></circle><path d="M116.68,102.05a5.24,5.24,0,1,1,5.24-5.23A5.24,5.24,0,0,1,116.68,102.05Zm0-8.47a3.24,3.24,0,1,0,3.24,3.24A3.25,3.25,0,0,0,116.68,93.58Z" fill="#093f68"></path><circle cx="127.27" cy="96.82" r="4.24" fill="#ffbc0e"></circle><path d="M127.27,102.05a5.24,5.24,0,1,1,5.24-5.23A5.23,5.23,0,0,1,127.27,102.05Zm0-8.47a3.24,3.24,0,1,0,3.24,3.24A3.24,3.24,0,0,0,127.27,93.58Z" fill="#093f68"></path><circle cx="137.86" cy="96.82" r="4.24" fill="#70cc40"></circle><path d="M137.86,102.05a5.24,5.24,0,1,1,5.24-5.23A5.24,5.24,0,0,1,137.86,102.05Zm0-8.47a3.24,3.24,0,1,0,3.24,3.24A3.24,3.24,0,0,0,137.86,93.58Z" fill="#093f68"></path><rect x="163.22" y="93.25" width="125.29" height="8.47" fill="#fff"></rect><path d="M288.51,102.72H163.22a1,1,0,0,1-1-1V93.25a1,1,0,0,1,1-1H288.51a1,1,0,0,1,1,1v8.47A1,1,0,0,1,288.51,102.72Zm-124.29-2H287.51V94.25H164.22Z" fill="#093f68"></path><path d="M166.32,115.79H137.86a1,1,0,0,1,0-2h28.46a1,1,0,0,1,0,2Z" fill="#dfeaef"></path><path d="M225.87,115.79H197.42a1,1,0,0,1,0-2h28.45a1,1,0,0,1,0,2Z" fill="#dfeaef"></path><path d="M285.42,115.79H257a1,1,0,1,1,0-2h28.45a1,1,0,0,1,0,2Z" fill="#dfeaef"></path><path d="M133.78,137.46l-5.16,2v0l5.16,2v2.21l-8.23-3.22v-2.05l8.23-3.22Z" fill="#093f68"></path><path d="M136.25,132.91h2.54v4.29h4.92v-4.29h2.54v11.51h-2.54v-5h-4.92v5h-2.54Z" fill="#093f68"></path><path d="M150.82,135.15h-3.28v-2.24h9.1v2.24h-3.28v9.27h-2.54Z" fill="#093f68"></path><path d="M157.93,132.91h3.84l2.65,7.51h0l2.67-7.51h3.82v11.51H168.4v-8.83h0l-3,8.83h-1.94l-2.91-8.83h0v8.83h-2.54Z" fill="#093f68"></path><path d="M173.38,132.91h2.54v9.17h4.7v2.34h-7.24Z" fill="#093f68"></path><path d="M182.15,141.53l5.15-2v0l-5.15-2v-2.21l8.23,3.22v2.05l-8.23,3.22Z" fill="#093f68"></path><path d="M167,170.37H115.44a1,1,0,0,1,0-2H167a1,1,0,0,1,0,2Z" fill="#dfeaef"></path><path d="M204.17,177.47H133.45a1,1,0,0,1,0-2h70.72a1,1,0,0,1,0,2Z" fill="#dfeaef"></path><path d="M174.39,184.4H123.92a1,1,0,1,1,0-2h50.47a1,1,0,0,1,0,2Z" fill="#dfeaef"></path><rect x="217.75" y="122.02" width="67.67" height="19.59" fill="#70cc40"></rect><path d="M285.42,142.61H217.75a1,1,0,0,1-1-1V122a1,1,0,0,1,1-1h67.67a1,1,0,0,1,1,1v19.59A1,1,0,0,1,285.42,142.61Zm-66.67-2h65.67V123H218.75Z" fill="#093f68"></path><rect x="217.75" y="150.65" width="67.67" height="32.75" fill="#f56132"></rect><path d="M285.42,184.4H217.75a1,1,0,0,1-1-1V150.65a1,1,0,0,1,1-1h67.67a1,1,0,0,1,1,1V183.4A1,1,0,0,1,285.42,184.4Zm-66.67-2h65.67V151.65H218.75Z" fill="#093f68"></path><rect x="269.19" y="150.65" width="16.22" height="32.75" fill="#fff"></rect><path d="M285.42,184.4H269.19a1,1,0,0,1-1-1V150.65a1,1,0,0,1,1-1h16.23a1,1,0,0,1,1,1V183.4A1,1,0,0,1,285.42,184.4Zm-15.23-2h14.23V151.65H270.19Z" fill="#093f68"></path><path d="M269.19,129.11H228.32a1,1,0,0,1,0-2h40.87a1,1,0,0,1,0,2Z" fill="#093f68"></path><path d="M259.79,168.22H228.45a1,1,0,0,1,0-2h31.34a1,1,0,0,1,0,2Z" fill="#093f68"></path><path d="M259.79,160.57H228.45a1,1,0,0,1,0-2h31.34a1,1,0,0,1,0,2Z" fill="#093f68"></path><path d="M240,175H228.45a1,1,0,0,1,0-2H240a1,1,0,0,1,0,2Z" fill="#093f68"></path><path d="M253.08,135.84H228.32a1,1,0,0,1,0-2h24.76a1,1,0,0,1,0,2Z" fill="#093f68"></path></svg>